<svg height="27pt" viewBox="0 0 29 27" width="29pt" xmlns="http://www.w3.org/2000/svg"><g stroke-linecap="round" stroke-linejoin="round" transform="scale(.11284 .112971)"><path d="m243.083782 1.486834-99.490571 73.926794 18.416487-43.602285zm0 0" fill="#e2761b" stroke="#e2761b"/><g fill="#e4761b" stroke="#e4761b"><path d="m13.396956 1.486834 98.694369 74.618345-17.481815-44.293836zm0 0"/><path d="m207.289332 172.783999-26.482355 40.628617 56.703395 15.594473 16.304822-55.324074zm0 0"/><path d="m2.907866 173.683015 16.20097 55.324074 56.703395-15.594473-26.516972-40.628617zm0 0"/><path d="m72.592807 104.216725-15.78556 23.893084 56.287985 2.489583-2.007813-60.510706zm0 0"/><path d="m183.887931 104.216725-38.979256-34.81959-1.315464 61.202257 56.21875-2.489583zm0 0"/><path d="m75.812231 213.412616 33.786638-16.528067-29.182517-22.786603zm0 0"/><path d="m146.916487 196.884549 33.89049 16.528067-4.707974-39.31467zm0 0"/></g><path d="m180.806977 213.412616-33.89049-16.528067 2.700162 22.129629-.311557 9.30136zm0 0" fill="#d7c1b3" stroke="#d7c1b3"/><path d="m75.812231 213.412616 31.501885 14.902922-.207704-9.30136 2.492457-22.129629zm0 0" fill="#d7c1b3" stroke="#d7c1b3"/><path d="m107.798761 159.506221-28.213228-8.298611 19.905038-9.093895zm0 0" fill="#233447" stroke="#233447"/><path d="m148.716595 159.506221 8.273572-17.392506 20.00889 9.093895zm0 0" fill="#233447" stroke="#233447"/><path d="m75.812231 213.412616 4.777209-40.628617-31.294181.899016zm0 0" fill="#cd6116" stroke="#cd6116"/><path d="m175.995151 172.783999 4.811826 40.628617 26.482355-39.729601zm0 0" fill="#cd6116" stroke="#cd6116"/><path d="m199.811961 128.109809-56.21875 2.489583 5.192619 28.906829 8.308189-17.392506 20.00889 9.093895zm0 0" fill="#cd6116" stroke="#cd6116"/><path d="m79.585533 151.20761 20.00889-9.093895 8.204338 17.392506 5.296471-28.906829-56.287985-2.489583zm0 0" fill="#cd6116" stroke="#cd6116"/><path d="m56.807247 128.109809 23.609105 45.988137-.830819-22.890336zm0 0" fill="#e4751f" stroke="#e4751f"/><path d="m177.102909 151.20761-1.003906 22.890336 23.712958-45.988137zm0 0" fill="#e4751f" stroke="#e4751f"/><path d="m113.095232 130.599392-5.296471 28.906829 6.611934 34.093461 1.488551-44.916233zm0 0" fill="#e4751f" stroke="#e4751f"/><path d="m143.593211 130.599392-2.700161 18.014902 1.211611 44.985388 6.681169-34.093461zm0 0" fill="#e4751f" stroke="#e4751f"/><path d="m148.78583 159.506221-6.681169 34.093461 4.811826 3.284867 29.182516-22.786603 1.003906-22.890336zm0 0" fill="#f6851b" stroke="#f6851b"/><path d="m79.585533 151.20761.830819 22.890336 29.182517 22.786603 4.811826-3.284867-6.611934-34.093461zm0 0" fill="#f6851b" stroke="#f6851b"/><path d="m149.305092 228.315538.311557-9.30136-2.527075-2.212963h-37.69841l-2.284752 2.212963.207704 9.30136-31.501885-14.902922 10.973733 8.990162 22.32826 15.490741h38.286907l22.397495-15.490741 11.008351-8.990162zm0 0" fill="#c0ad9e" stroke="#c0ad9e"/><path d="m146.916487 196.884549-4.811826-3.284867h-27.693966l-4.811826 3.284867-2.492457 22.129629 2.284752-2.212963h37.69841l2.527075 2.212963zm0 0" fill="#161616" stroke="#161616"/><path d="m247.307112 80.18533 8.481277-40.801505-12.704607-37.896991-96.167295 71.402634 36.971444 31.327257 52.306977 15.283275 11.596848-13.485243-4.984913-3.630642 7.996632-7.295863-6.196525-4.771701 7.996633-6.120226zm0 0" fill="#763d16" stroke="#763d16"/><path d="m.796202 39.383825 8.515894 40.801505-5.400323 4.010995 7.996632 6.120226-6.092672 4.771701 7.996632 7.295863-5.019531 3.630642 11.492996 13.485243 52.306977-15.283275 37.006062-31.327257-96.201913-71.402634zm0 0" fill="#763d16" stroke="#763d16"/><path d="m236.194908 119.5-52.306977-15.283275 15.92403 23.893084-23.712958 45.988137 31.190329-.414931h46.525862zm0 0" fill="#f6851b" stroke="#f6851b"/><path d="m72.592807 104.216725-52.306977 15.283275-17.377964 54.183015h46.387393l31.121093.414931-23.609105-45.988137zm0 0" fill="#f6851b" stroke="#f6851b"/><path d="m143.593211 130.599392 3.323276-57.709924 15.197064-41.078125h-67.504041l14.989359 41.078125 3.496363 57.709924 1.211611 18.18779.103852 44.8125h27.693966l.207704-44.8125zm0 0" fill="#f6851b" stroke="#f6851b"/></g></svg>