<svg width="293" height="339" viewBox="0 0 293 339" fill="none" xmlns="http://www.w3.org/2000/svg">
<path fill-rule="evenodd" clip-rule="evenodd" d="M240 143.405V148.215L244.166 150.621L248.332 148.215V143.405L244.166 141L240 143.405Z" stroke="#FC806F" stroke-width="0.75"/>
<g opacity="0.1">
<path d="M285 4C285 2.34345 283.657 1 282 1C280.343 1 279 2.34345 279 4C279 5.65655 280.343 7 282 7C283.657 7 285 5.65655 285 4" stroke="#9C55F6" stroke-width="0.75"/>
</g>
<g opacity="0.5">
<path fill-rule="evenodd" clip-rule="evenodd" d="M286 27L289 24L292 27L289 30L286 27Z" stroke="#FC806F" stroke-width="0.75"/>
</g>
<path fill-rule="evenodd" clip-rule="evenodd" d="M215.509 116L210 125.541H221.018L215.509 116Z" stroke="#9C55F6" stroke-width="0.75"/>
<g opacity="0.2">
<path fill-rule="evenodd" clip-rule="evenodd" d="M255.5 45L259 38H252L255.5 45Z" stroke="#F12274" stroke-width="0.75"/>
</g>
<g opacity="0.8">
<path fill-rule="evenodd" clip-rule="evenodd" d="M237 95H244V88H237V95Z" stroke="#31E4C3" stroke-width="0.75"/>
</g>
<g opacity="0.8">
<path fill-rule="evenodd" clip-rule="evenodd" d="M259 111L255 113.674L256.528 118H261.472L263 113.674L259 111Z" stroke="#31E4C3" stroke-width="0.75"/>
</g>
<rect x="10" y="216" width="123" height="9.99999" rx="5" transform="rotate(90 10 216)" fill="#9C55F6"/>
<path d="M200 220H0C3.33333 179 29.0476 118 100.476 118C162.857 118 200 171 200 220Z" fill="#9C55F6"/>
<path d="M237 220H132C133.75 199.5 147.25 169 184.75 169C217.5 169 237 195.5 237 220Z" fill="#C8A1FB"/>
<path d="M207 220H162C162.75 214.373 168.536 206 184.607 206C198.643 206 207 213.275 207 220Z" fill="#ECE3F7"/>
<path fill-rule="evenodd" clip-rule="evenodd" d="M155.865 153.443L154.241 182.333L179.971 169.449L155.865 153.443Z" fill="#C8A1FB"/>
<path fill-rule="evenodd" clip-rule="evenodd" d="M159.162 161.087L158.132 179.417L174.456 171.242L159.162 161.087Z" fill="#9C55F6"/>
<path fill-rule="evenodd" clip-rule="evenodd" d="M224.568 158.681L199 172.229L223.332 187.591L224.568 158.681Z" fill="#C8A1FB"/>
<path fill-rule="evenodd" clip-rule="evenodd" d="M220.727 165.325L203 174.718L219.869 185.368L220.727 165.325Z" fill="#9C4DF9"/>
<rect x="251" y="211" width="16" height="17" rx="8" transform="rotate(90 251 211)" fill="#C8A1FB" stroke="#9C55F6" stroke-width="2"/>
<path d="M185 196C187.351 196 189.4 197.6 189.97 199.881L191.06 204.239C192.045 208.181 189.064 212 185 212C180.936 212 177.955 208.181 178.94 204.239L180.03 199.881C180.6 197.6 182.649 196 185 196Z" fill="#D1AFFC"/>
<path d="M161.474 192.842C161.387 192.58 161.104 192.438 160.842 192.526C160.58 192.613 160.438 192.896 160.526 193.158L161.474 192.842ZM175.484 193.121C175.551 192.853 175.388 192.582 175.12 192.515C174.852 192.448 174.581 192.611 174.514 192.879L175.484 193.121ZM160.526 193.158C161.064 194.774 162.022 195.879 163.33 196.567C164.618 197.246 166.211 197.5 167.999 197.5V196.5C166.289 196.5 164.881 196.254 163.795 195.683C162.728 195.121 161.936 194.226 161.474 192.842L160.526 193.158ZM167.999 197.5C171.123 197.5 173.003 196.453 174.103 195.354C174.647 194.809 174.989 194.263 175.196 193.849C175.3 193.641 175.37 193.466 175.415 193.34C175.438 193.277 175.454 193.226 175.465 193.188C175.471 193.17 175.475 193.155 175.478 193.144C175.48 193.138 175.481 193.133 175.482 193.129C175.482 193.128 175.483 193.126 175.483 193.125C175.483 193.124 175.483 193.123 175.484 193.123C175.484 193.122 175.484 193.122 175.484 193.122C175.484 193.121 175.484 193.121 174.999 193C174.514 192.879 174.514 192.879 174.514 192.878C174.514 192.878 174.514 192.878 174.514 192.878C174.514 192.877 174.514 192.877 174.514 192.877C174.514 192.876 174.514 192.876 174.514 192.876C174.514 192.876 174.514 192.877 174.514 192.879C174.513 192.883 174.51 192.891 174.507 192.901C174.501 192.923 174.49 192.958 174.473 193.004C174.44 193.096 174.386 193.234 174.302 193.401C174.134 193.737 173.851 194.191 173.396 194.646C172.496 195.547 170.876 196.5 167.999 196.5V197.5Z" fill="#FAF5FF"/>
<path d="M193.474 192.842C193.387 192.58 193.104 192.438 192.842 192.526C192.58 192.613 192.438 192.896 192.526 193.158L193.474 192.842ZM207.484 193.121C207.551 192.853 207.388 192.582 207.12 192.515C206.852 192.448 206.581 192.611 206.514 192.879L207.484 193.121ZM192.526 193.158C193.064 194.774 194.022 195.879 195.33 196.567C196.618 197.246 198.211 197.5 199.999 197.5V196.5C198.289 196.5 196.881 196.254 195.795 195.683C194.728 195.121 193.936 194.226 193.474 192.842L192.526 193.158ZM199.999 197.5C203.123 197.5 205.003 196.453 206.103 195.354C206.647 194.809 206.989 194.263 207.196 193.849C207.3 193.641 207.37 193.466 207.415 193.34C207.438 193.277 207.454 193.226 207.465 193.188C207.471 193.17 207.475 193.155 207.478 193.144C207.48 193.138 207.481 193.133 207.482 193.129C207.482 193.128 207.483 193.126 207.483 193.125C207.483 193.124 207.483 193.123 207.484 193.123C207.484 193.122 207.484 193.122 207.484 193.122C207.484 193.121 207.484 193.121 206.999 193C206.514 192.879 206.514 192.879 206.514 192.878C206.514 192.878 206.514 192.878 206.514 192.878C206.514 192.877 206.514 192.877 206.514 192.877C206.514 192.876 206.514 192.876 206.514 192.876C206.514 192.876 206.514 192.877 206.514 192.879C206.513 192.883 206.51 192.891 206.507 192.901C206.501 192.923 206.49 192.958 206.473 193.004C206.44 193.096 206.386 193.234 206.302 193.401C206.134 193.737 205.851 194.191 205.396 194.646C204.496 195.547 202.876 196.5 199.999 196.5V197.5Z" fill="#FAF5FF"/>
<path d="M196 210L211.5 202" stroke="#ECE3F7" stroke-linecap="round" stroke-linejoin="round"/>
<path d="M196 215L211.5 207" stroke="#ECE3F7" stroke-linecap="round" stroke-linejoin="round"/>
<path d="M168 212L157 204" stroke="#ECE3F7" stroke-linecap="round" stroke-linejoin="round"/>
<path d="M168 217L157 209" stroke="#ECE3F7" stroke-linecap="round" stroke-linejoin="round"/>
<path d="M233 220C226.993 227.101 229.396 228.623 214.98 239.783C203.923 248.342 189.752 252.971 181 255" stroke="#9C55F6" stroke-linecap="round" stroke-dasharray="2 2"/>
<path fill-rule="evenodd" clip-rule="evenodd" d="M191 262.5C191 267.747 186.523 272 181 272C175.477 272 171 267.747 171 262.5C171 257.253 175.477 253 181 253C186.523 253 191 257.253 191 262.5Z" fill="#44708F"/>
<path fill-rule="evenodd" clip-rule="evenodd" d="M176.572 263.677L180.861 255.284V265.822L176.572 263.677Z" fill="white"/>
<path fill-rule="evenodd" clip-rule="evenodd" d="M185.428 263.677L181.124 265.822V255.281L185.428 263.677Z" fill="white"/>
<path fill-rule="evenodd" clip-rule="evenodd" d="M176.572 263.984L180.861 266.025V269.305L176.572 263.984Z" fill="white"/>
<path fill-rule="evenodd" clip-rule="evenodd" d="M185.428 263.984L181.124 269.305V266.025L185.428 263.984Z" fill="white"/>
<path d="M129.5 220C135.333 227 133 228.5 147 239.5C157.738 247.937 172 252.5 180.5 254.5" stroke="#9C55F6" stroke-linecap="round" stroke-dasharray="2 2"/>
<rect x="127" y="213" width="69" height="17" rx="8.5" transform="rotate(90 127 213)" fill="#9C55F6"/>
<rect x="127" y="265" width="17" height="17" rx="8.5" transform="rotate(90 127 265)" fill="#C8A1FB"/>
<path fill-rule="evenodd" clip-rule="evenodd" d="M185.057 210.429L188.167 208.464L187.084 205.127L183.306 205.03L182.052 208.307L185.057 210.429Z" fill="#9C55F6"/>
</svg>
