<svg width="335" height="430" viewBox="0 0 335 430" fill="none" xmlns="http://www.w3.org/2000/svg">
<path d="M200 260H0C3.33333 219 29.0476 158 100.476 158C162.857 158 200 211 200 260Z" fill="#2ED9B9"/>
<path d="M169 217.5C173.908 217.841 176 212 179 210C182 208 198.5 214 198.5 214C198 217.833 193.4 227.9 179 237.5C161 249.5 134 231 122.5 218.5C113.3 208.5 144 201.5 151 204C158 206.5 164.092 217.159 169 217.5Z" fill="#2ED9B9"/>
<path fill-rule="evenodd" clip-rule="evenodd" d="M177.5 259.5H31.7572C17.9433 280.712 10.4117 322.071 10 346.5L10 371.5C10 371.669 9.99164 371.836 9.97531 372C9.99164 372.164 10 372.331 10 372.5C10 398.457 31.0426 419.5 57 419.5C82.9574 419.5 104 398.457 104 372.5C104 358.141 92.3594 346.5 78 346.5C63.6406 346.5 52 358.141 52 372.5C52 372.669 51.9916 372.836 51.9753 373C51.9916 373.164 52 373.331 52 373.5C52 380.68 57.8203 386.5 65 386.5C72.1797 386.5 78 380.68 78 373.5C78 370.739 80.2386 368.5 83 368.5C85.7614 368.5 88 370.739 88 373.5C88 386.203 77.7025 396.5 65 396.5C52.2975 396.5 42 386.203 42 373.5C42 373.331 42.0084 373.164 42.0247 373C42.0084 372.836 42 372.669 42 372.5C42 352.618 58.1177 336.5 78 336.5C97.8822 336.5 114 352.618 114 372.5C114 403.98 88.4802 429.5 57 429.5C25.5198 429.5 0 403.98 0 372.5C0 372.331 0.00835999 372.164 0.0246884 372C0.00835999 371.836 0 371.669 0 371.5V259.5C0 259.493 1.81871e-06 259.486 5.45583e-06 259.479L5.50349e-06 258.5C5.51125e-06 258.322 0.00925625 258.147 0.0273019 257.974C1.12521 226.999 35.1998 182 77.5 182C139.881 182 177.5 210.5 177.5 259.5Z" fill="#2ED9B9"/>
<path d="M152 260.5H70C71 248.843 78.7143 231.5 100.143 231.5C118.857 231.5 152 246.569 152 260.5Z" fill="#E8FAF7"/>
<rect x="167" y="252.5" width="16" height="17" rx="8" transform="rotate(90 167 252.5)" fill="#2ED9B9" stroke="#2BCFB0" stroke-width="2"/>
<path fill-rule="evenodd" clip-rule="evenodd" d="M29.0145 262.5H29C29.85 252.049 36.4071 236.5 54.6214 236.5C67.1315 236.5 75.6612 244.856 78.7337 254.5H89.5C94.1944 254.5 98 258.306 98 263C98 267.694 94.1944 271.5 89.5 271.5H37.5C32.8056 271.5 29 267.694 29 263C29 262.832 29.0049 262.665 29.0145 262.5Z" fill="#2BCFB0"/>
<path fill-rule="evenodd" clip-rule="evenodd" d="M330 247.5C330 252.747 325.523 257 320 257C314.477 257 310 252.747 310 247.5C310 242.253 314.477 238 320 238C325.523 238 330 242.253 330 247.5Z" fill="#F7931A"/>
<path fill-rule="evenodd" clip-rule="evenodd" d="M321.482 250.284C321.404 250.553 321.228 250.774 320.988 250.907C320.747 251.041 320.471 251.07 320.209 250.99L317.586 250.189L318.17 248.179L320.793 248.979H320.793C321.334 249.144 321.643 249.73 321.482 250.284ZM322.091 246.093C322.221 246.339 322.249 246.623 322.171 246.891C322.01 247.446 321.439 247.762 320.898 247.597H320.898L318.276 246.797L318.86 244.786L321.483 245.586C321.745 245.666 321.96 245.846 322.091 246.093ZM323.508 245.503C323.208 244.935 322.71 244.521 322.107 244.337L321.76 244.231L322.245 242.559L320.999 242.178L320.513 243.85L319.449 243.525L319.935 241.853L319.636 241.762L318.427 241.393L317.958 243.005L316.484 242.555L316.068 243.987L317.542 244.437L316.028 249.649L314.554 249.199L314.138 250.632L315.612 251.081L315.217 252.442L315.515 252.533L316.725 252.902L317.137 251.482L318.204 251.807L317.791 253.228L319.033 253.607L319.446 252.186L319.795 252.293C320.018 252.361 320.245 252.395 320.471 252.395C320.858 252.395 321.241 252.296 321.59 252.102C322.144 251.795 322.549 251.285 322.728 250.666C322.917 250.015 322.824 249.346 322.523 248.796C323.069 248.504 323.504 247.995 323.694 247.344C323.873 246.725 323.807 246.071 323.508 245.503Z" fill="white"/>
<rect x="220" y="254" width="106" height="6" rx="3" fill="#F12274"/>
<circle cx="235" cy="219.5" r="15.5" fill="#2ED9B9" stroke="#2BCFB0"/>
<path fill-rule="evenodd" clip-rule="evenodd" d="M252.162 260C254.628 254.505 256 248.413 256 242C256 217.699 236.301 198 212 198C187.699 198 168 217.699 168 242C168 248.413 169.372 254.505 171.838 260H252.162Z" fill="#2BCFB0"/>
<circle cx="228" cy="220.5" r="15.5" fill="#31E4C3" stroke="#E8FAF7"/>
<circle cx="233" cy="219.5" r="7" fill="#0CC7A4"/>
<path fill-rule="evenodd" clip-rule="evenodd" d="M10 207.6H19.6V198H10V207.6Z" stroke="#31E4C3" stroke-width="0.75"/>
<path fill-rule="evenodd" clip-rule="evenodd" d="M53 143.405V148.215L57.166 150.621L61.332 148.215V143.405L57.166 141L53 143.405Z" stroke="#FC806F" stroke-width="0.75"/>
<g opacity="0.1">
<path d="M98 4C98 2.34345 96.6566 1 95 1C93.3428 1 92 2.34345 92 4C92 5.65655 93.3428 7 95 7C96.6566 7 98 5.65655 98 4" stroke="#9C55F6" stroke-width="0.75"/>
</g>
<g opacity="0.5">
<path fill-rule="evenodd" clip-rule="evenodd" d="M99 27L102 24L105 27L102 30L99 27Z" stroke="#FC806F" stroke-width="0.75"/>
</g>
<path fill-rule="evenodd" clip-rule="evenodd" d="M28.509 116L23 125.541H34.018L28.509 116Z" stroke="#9C55F6" stroke-width="0.75"/>
<g opacity="0.2">
<path fill-rule="evenodd" clip-rule="evenodd" d="M68.5 45L72 38H65L68.5 45Z" stroke="#F12274" stroke-width="0.75"/>
</g>
<g opacity="0.8">
<path fill-rule="evenodd" clip-rule="evenodd" d="M50 95H57V88H50V95Z" stroke="#31E4C3" stroke-width="0.75"/>
</g>
<g opacity="0.8">
<path fill-rule="evenodd" clip-rule="evenodd" d="M72 111L68 113.674L69.5282 118H74.4718L76 113.674L72 111Z" stroke="#31E4C3" stroke-width="0.75"/>
</g>
<path d="M64.16 219.58C64.16 217.051 62.109 215 59.58 215C57.05 215 55 217.051 55 219.58C55 222.109 57.05 224.16 59.58 224.16C62.109 224.16 64.16 222.109 64.16 219.58" stroke="#9C55F6" stroke-width="0.75"/>
<path fill-rule="evenodd" clip-rule="evenodd" d="M88 185.83L92.83 181L97.659 185.83L92.83 190.66L88 185.83Z" stroke="#FC806F" stroke-width="0.75"/>
<path fill-rule="evenodd" clip-rule="evenodd" d="M139.509 216.541L145.018 207H134L139.509 216.541Z" stroke="#F12274" stroke-width="0.75"/>
<path fill-rule="evenodd" clip-rule="evenodd" d="M161.994 164L157 167.628L158.908 173.499H165.08L166.988 167.628L161.994 164Z" stroke="#31E4C3" stroke-width="0.75"/>
<path d="M323 257C327.971 257 332 252.747 332 247.5C332 242.253 327.971 238 323 238" stroke="#F12274" stroke-width="6" stroke-linecap="round"/>
</svg>
