<svg width="32" height="32" fill="none" xmlns="http://www.w3.org/2000/svg"><path d="M16 31c8.284 0 15-6.716 15-15 0-8.284-6.716-15-15-15C7.716 1 1 7.716 1 16c0 8.284 6.716 15 15 15z" fill="#FAFCFE" stroke="url(#paint0_linear)"/><path d="M13.25 20.46l10.366-10.317a.497.497 0 0 1 .689-.008.466.466 0 0 1 .008.671L13.598 21.47a.497.497 0 0 1-.697 0L8.14 16.73a.466.466 0 0 1 .008-.67.497.497 0 0 1 .689.007l4.413 4.393z" stroke="#31E4C3"/><defs><linearGradient id="paint0_linear" x2="1"><stop offset="0" stop-color="#9C55F6"/><stop offset="1" stop-color="#31E4C3"/></linearGradient></defs></svg>