<svg fill="none" height="32" viewBox="0 0 32 32" width="32" xmlns="http://www.w3.org/2000/svg"><circle cx="16.060379" cy="16.036282" fill="#f4b731" r="16"/><path clip-rule="evenodd" d="m9.872488 8.3784h6.13725c3.73313 0 6.562852 2.024227 7.615613 4.969724h1.911759v1.780302h-1.509193c.02953.281346.04463.567948.04463.859152v.04372c0 .32783-.01907.650135-.05639.965776h1.520953v1.780284h-1.948177c-1.080471 2.904532-3.888281 4.90944-7.579201 4.90944h-6.137246v-4.909439h-2.1326422v-1.780284h2.1326422v-1.868651h-2.1326412v-1.780302h2.1326422zm1.715733 10.398961v3.312384h4.421517c2.728488 0 4.755657-1.326654 5.699292-3.312384zm10.64641-1.780284h-10.64641v-1.868651h10.649148c.03947.294077.05962.595524.05962.902875v.04372c0 .314451-.02105.622289-.06235.922056zm-6.224893-7.024254c2.741055 0 4.774293 1.361655 5.712234 3.375301h-10.133751v-3.375301z" fill="#fff" fill-opacity=".941176" fill-rule="evenodd" stroke-width=".05394"/></svg>