<svg width="12" height="6" viewBox="0 0 12 6" fill="none" xmlns="http://www.w3.org/2000/svg">
<path fill-rule="evenodd" clip-rule="evenodd" d="M5.96166 5.99882C5.80314 5.99094 5.65246 5.9304 5.53561 5.82763L0.218499 1.13222C0.0396281 0.973498 -0.0371396 0.735542 0.0171159 0.507991C0.0713715 0.28044 0.248407 0.0978676 0.481529 0.0290527C0.714651 -0.0397621 0.96844 0.0156361 1.14729 0.174378L6 4.45813L10.8527 0.174378C11.0316 0.0156361 11.2853 -0.0397621 11.5185 0.0290527C11.7516 0.0978676 11.9286 0.28044 11.9829 0.507991C12.0371 0.735542 11.9604 0.973498 11.7815 1.13222L6.4644 5.82763C6.32809 5.94767 6.14659 6.00948 5.96166 5.99882Z" fill="#1D1E21"/>
</svg>
