<svg width="15" height="15" viewBox="0 0 15 15" fill="none" xmlns="http://www.w3.org/2000/svg">
<path fill-rule="evenodd" clip-rule="evenodd" d="M7.47706 0C3.34862 0 0 3.442 0 7.68555C0 11.0804 2.15596 13.9566 5.09174 14.9939C5.45872 15.0411 5.59633 14.8053 5.59633 14.6167C5.59633 14.4281 5.59633 13.9566 5.59633 13.2965C3.53211 13.768 3.07339 12.2592 3.07339 12.2592C2.75229 11.3633 2.24771 11.1275 2.24771 11.1275C1.55963 10.656 2.29358 10.656 2.29358 10.656C3.02752 10.7032 3.44037 11.4576 3.44037 11.4576C4.12844 12.6364 5.18349 12.3063 5.59633 12.1177C5.6422 11.5991 5.87156 11.269 6.05505 11.0804C4.40367 10.8918 2.66055 10.2317 2.66055 7.2612C2.66055 6.41249 2.93578 5.75238 3.44037 5.18657C3.3945 5.04512 3.11927 4.24356 3.53211 3.20624C3.53211 3.20624 4.17431 3.01764 5.59633 4.0078C6.19266 3.8192 6.83486 3.77205 7.47706 3.77205C8.11927 3.77205 8.76147 3.86635 9.3578 4.0078C10.7798 3.01764 11.422 3.20624 11.422 3.20624C11.8349 4.24356 11.5596 5.04512 11.5138 5.23372C11.9725 5.75238 12.2936 6.45964 12.2936 7.30835C12.2936 10.2788 10.5505 10.8918 8.89908 11.0804C9.17431 11.3162 9.40367 11.7877 9.40367 12.4949C9.40367 13.5322 9.40367 14.3338 9.40367 14.6167C9.40367 14.8053 9.54128 15.0411 9.90826 14.9939C12.8899 13.9566 15 11.0804 15 7.68555C14.9541 3.442 11.6055 0 7.47706 0Z" fill="#A8AEB7"/>
</svg>
