<?xml version="1.0" ?><!DOCTYPE svg  PUBLIC '-//W3C//DTD SVG 1.1//EN'  'http://www.w3.org/Graphics/SVG/1.1/DTD/svg11.dtd'><svg enable-background="new 0 0 48 48" height="48px" id="Layer_1" version="1.1" viewBox="0 0 48 48" width="48px" xml:space="preserve" xmlns="http://www.w3.org/2000/svg" xmlns:xlink="http://www.w3.org/1999/xlink"><g><g><path d="M23.945,15.774c1.26,0,2.053-0.864,2.016-1.944c0-1.115-0.756-1.979-1.943-1.979c-1.151,0-1.979,0.863-1.979,1.979    C22.039,14.91,22.83,15.774,23.945,15.774z"/><path d="M25.602,34.941V20.145c0-1.303-1.053-1.413-1.351-1.418h-0.566c0,0-1.251,0.012-1.251,1.152v15.303    c0.023,0.346,0.175,0.967,1.001,0.967h1.181C24.967,36.121,25.602,35.938,25.602,34.941z"/></g><path d="M24,0C10.746,0,0,10.744,0,24c0,13.254,10.745,24,24,24c13.256,0,24-10.746,24-24C48,10.744,37.256,0,24,0z M24,44   C12.955,44,4,35.045,4,24C4,12.953,12.955,4,24,4c11.047,0,20,8.954,20,20C44,35.045,35.047,44,24,44z"/></g></svg>