<svg width="16" height="13" viewBox="0 0 16 13" fill="none" xmlns="http://www.w3.org/2000/svg">
<path d="M1.86253 2.53352C1.88205 2.34149 1.80852 2.15168 1.66455 2.02244L0.197986 0.262844V0H4.75165L8.2714 7.68819L11.3658 0H15.7069V0.262844L14.4529 1.46024C14.3448 1.54231 14.2912 1.6772 14.3136 1.8107V10.6087C14.2912 10.7422 14.3448 10.8771 14.4529 10.9591L15.6775 12.1565V12.4194H9.51797V12.1565L10.7865 10.9299C10.9112 10.8058 10.9112 10.7693 10.9112 10.5795V3.46808L7.38413 12.3902H6.9075L2.80113 3.46808V9.44778C2.76689 9.69918 2.85072 9.95229 3.02845 10.1341L4.67833 12.1273V12.3902H0V12.1273L1.64988 10.1341C1.82631 9.95199 1.90525 9.6972 1.86253 9.44778V2.53352Z" fill="#A8AEB7"/>
</svg>
