<svg width="18" height="17" xmlns="http://www.w3.org/2000/svg">

 <g>
  <title>background</title>
  <rect fill="none" id="canvas_background" height="19" width="20" y="-1" x="-1"/>
 </g>
 <g>
  <title>Layer 1</title>
  <path id="svg_1" d="m0.911,0l-0.911,2.68l0.596,2.843l-0.386,0.299l0.56,0.433l-0.426,0.33l0.567,0.51l-0.36,0.242l0.824,0.95l-1.22,3.85l1.148,3.873l4.12,-1.075l2.187,1.704l2.737,0l2.383,-1.746l3.967,1.117l1.149,-3.874l0.005,0l-1.226,-3.849l0.823,-0.95l-0.36,-0.241l0.568,-0.51l-0.426,-0.33l0.56,-0.434l-0.386,-0.3l0.596,-2.842l-0.912,-2.68l-5.738,2.107l-4.699,0l-5.74,-2.107zm10.284,9.451l2.344,1.103l-3.28,0.945l0.936,-2.048zm-6.734,1.1l2.345,-1.1l0.936,2.048l-3.281,-0.948zm3.151,3.148l0.407,-0.234l1.962,0l0.383,0.246l0.129,1.43l-3.015,0l0.134,-1.442z" fill-rule="evenodd" fill="#000"/>
 </g>
</svg>