<svg xmlns="http://www.w3.org/2000/svg" width="24" height="24" viewBox="0 0 24 24">
    <path fill="#000" fill-rule="evenodd" d="M3.911 4L3 6.68l.596 2.843-.386.299.56.433-.426.33.567.51-.36.242.824.95-1.22 3.85 1.148 3.873 4.12-1.075 2.187 1.704h2.737l2.383-1.746 3.967 1.117 1.149-3.874h.005l-1.226-3.849.823-.95-.36-.241.568-.51-.426-.33.56-.434-.386-.3L21 6.68 20.088 4 14.35 6.107H9.651L3.911 4zm10.284 9.451l2.344 1.103-3.28.945.936-2.048zm-6.734 1.1l2.345-1.1.936 2.048-3.281-.948zm3.151 3.148l.407-.234h1.962l.383.246.129 1.43h-3.015l.134-1.442z"/>
</svg>
