<?xml version="1.0" encoding="UTF-8"?>
<svg xmlns="http://www.w3.org/2000/svg" xmlns:xlink="http://www.w3.org/1999/xlink" width="29pt" height="27pt" viewBox="0 0 29 27" version="1.1">
<g id="surface1">
<path style="fill-rule:nonzero;fill:rgb(88.627451%,46.27451%,10.588235%);fill-opacity:1;stroke-width:1;stroke-linecap:round;stroke-linejoin:round;stroke:rgb(88.627451%,46.27451%,10.588235%);stroke-opacity:1;stroke-miterlimit:4;" d="M 243.083782 1.486834 L 143.593211 75.413628 L 162.009698 31.811343 Z M 243.083782 1.486834 " transform="matrix(0.11284,0,0,0.112971,0,0)"/>
<path style="fill-rule:nonzero;fill:rgb(89.411765%,46.27451%,10.588235%);fill-opacity:1;stroke-width:1;stroke-linecap:round;stroke-linejoin:round;stroke:rgb(89.411765%,46.27451%,10.588235%);stroke-opacity:1;stroke-miterlimit:4;" d="M 13.396956 1.486834 L 112.091325 76.105179 L 94.60951 31.811343 Z M 13.396956 1.486834 " transform="matrix(0.11284,0,0,0.112971,0,0)"/>
<path style="fill-rule:nonzero;fill:rgb(89.411765%,46.27451%,10.588235%);fill-opacity:1;stroke-width:1;stroke-linecap:round;stroke-linejoin:round;stroke:rgb(89.411765%,46.27451%,10.588235%);stroke-opacity:1;stroke-miterlimit:4;" d="M 207.289332 172.783999 L 180.806977 213.412616 L 237.510372 229.007089 L 253.815194 173.683015 Z M 207.289332 172.783999 " transform="matrix(0.11284,0,0,0.112971,0,0)"/>
<path style="fill-rule:nonzero;fill:rgb(89.411765%,46.27451%,10.588235%);fill-opacity:1;stroke-width:1;stroke-linecap:round;stroke-linejoin:round;stroke:rgb(89.411765%,46.27451%,10.588235%);stroke-opacity:1;stroke-miterlimit:4;" d="M 2.907866 173.683015 L 19.108836 229.007089 L 75.812231 213.412616 L 49.295259 172.783999 Z M 2.907866 173.683015 " transform="matrix(0.11284,0,0,0.112971,0,0)"/>
<path style="fill-rule:nonzero;fill:rgb(89.411765%,46.27451%,10.588235%);fill-opacity:1;stroke-width:1;stroke-linecap:round;stroke-linejoin:round;stroke:rgb(89.411765%,46.27451%,10.588235%);stroke-opacity:1;stroke-miterlimit:4;" d="M 72.592807 104.216725 L 56.807247 128.109809 L 113.095232 130.599392 L 111.087419 70.088686 Z M 72.592807 104.216725 " transform="matrix(0.11284,0,0,0.112971,0,0)"/>
<path style="fill-rule:nonzero;fill:rgb(89.411765%,46.27451%,10.588235%);fill-opacity:1;stroke-width:1;stroke-linecap:round;stroke-linejoin:round;stroke:rgb(89.411765%,46.27451%,10.588235%);stroke-opacity:1;stroke-miterlimit:4;" d="M 183.887931 104.216725 L 144.908675 69.397135 L 143.593211 130.599392 L 199.811961 128.109809 Z M 183.887931 104.216725 " transform="matrix(0.11284,0,0,0.112971,0,0)"/>
<path style="fill-rule:nonzero;fill:rgb(89.411765%,46.27451%,10.588235%);fill-opacity:1;stroke-width:1;stroke-linecap:round;stroke-linejoin:round;stroke:rgb(89.411765%,46.27451%,10.588235%);stroke-opacity:1;stroke-miterlimit:4;" d="M 75.812231 213.412616 L 109.598869 196.884549 L 80.416352 174.097946 Z M 75.812231 213.412616 " transform="matrix(0.11284,0,0,0.112971,0,0)"/>
<path style="fill-rule:nonzero;fill:rgb(89.411765%,46.27451%,10.588235%);fill-opacity:1;stroke-width:1;stroke-linecap:round;stroke-linejoin:round;stroke:rgb(89.411765%,46.27451%,10.588235%);stroke-opacity:1;stroke-miterlimit:4;" d="M 146.916487 196.884549 L 180.806977 213.412616 L 176.099003 174.097946 Z M 146.916487 196.884549 " transform="matrix(0.11284,0,0,0.112971,0,0)"/>
<path style="fill-rule:nonzero;fill:rgb(84.313725%,75.686275%,70.196078%);fill-opacity:1;stroke-width:1;stroke-linecap:round;stroke-linejoin:round;stroke:rgb(84.313725%,75.686275%,70.196078%);stroke-opacity:1;stroke-miterlimit:4;" d="M 180.806977 213.412616 L 146.916487 196.884549 L 149.616649 219.014178 L 149.305092 228.315538 Z M 180.806977 213.412616 " transform="matrix(0.11284,0,0,0.112971,0,0)"/>
<path style="fill-rule:nonzero;fill:rgb(84.313725%,75.686275%,70.196078%);fill-opacity:1;stroke-width:1;stroke-linecap:round;stroke-linejoin:round;stroke:rgb(84.313725%,75.686275%,70.196078%);stroke-opacity:1;stroke-miterlimit:4;" d="M 75.812231 213.412616 L 107.314116 228.315538 L 107.106412 219.014178 L 109.598869 196.884549 Z M 75.812231 213.412616 " transform="matrix(0.11284,0,0,0.112971,0,0)"/>
<path style="fill-rule:nonzero;fill:rgb(13.72549%,20.392157%,27.843137%);fill-opacity:1;stroke-width:1;stroke-linecap:round;stroke-linejoin:round;stroke:rgb(13.72549%,20.392157%,27.843137%);stroke-opacity:1;stroke-miterlimit:4;" d="M 107.798761 159.506221 L 79.585533 151.20761 L 99.490571 142.113715 Z M 107.798761 159.506221 " transform="matrix(0.11284,0,0,0.112971,0,0)"/>
<path style="fill-rule:nonzero;fill:rgb(13.72549%,20.392157%,27.843137%);fill-opacity:1;stroke-width:1;stroke-linecap:round;stroke-linejoin:round;stroke:rgb(13.72549%,20.392157%,27.843137%);stroke-opacity:1;stroke-miterlimit:4;" d="M 148.716595 159.506221 L 156.990167 142.113715 L 176.999057 151.20761 Z M 148.716595 159.506221 " transform="matrix(0.11284,0,0,0.112971,0,0)"/>
<path style="fill-rule:nonzero;fill:rgb(80.392157%,38.039216%,8.627451%);fill-opacity:1;stroke-width:1;stroke-linecap:round;stroke-linejoin:round;stroke:rgb(80.392157%,38.039216%,8.627451%);stroke-opacity:1;stroke-miterlimit:4;" d="M 75.812231 213.412616 L 80.58944 172.783999 L 49.295259 173.683015 Z M 75.812231 213.412616 " transform="matrix(0.11284,0,0,0.112971,0,0)"/>
<path style="fill-rule:nonzero;fill:rgb(80.392157%,38.039216%,8.627451%);fill-opacity:1;stroke-width:1;stroke-linecap:round;stroke-linejoin:round;stroke:rgb(80.392157%,38.039216%,8.627451%);stroke-opacity:1;stroke-miterlimit:4;" d="M 175.995151 172.783999 L 180.806977 213.412616 L 207.289332 173.683015 Z M 175.995151 172.783999 " transform="matrix(0.11284,0,0,0.112971,0,0)"/>
<path style="fill-rule:nonzero;fill:rgb(80.392157%,38.039216%,8.627451%);fill-opacity:1;stroke-width:1;stroke-linecap:round;stroke-linejoin:round;stroke:rgb(80.392157%,38.039216%,8.627451%);stroke-opacity:1;stroke-miterlimit:4;" d="M 199.811961 128.109809 L 143.593211 130.599392 L 148.78583 159.506221 L 157.094019 142.113715 L 177.102909 151.20761 Z M 199.811961 128.109809 " transform="matrix(0.11284,0,0,0.112971,0,0)"/>
<path style="fill-rule:nonzero;fill:rgb(80.392157%,38.039216%,8.627451%);fill-opacity:1;stroke-width:1;stroke-linecap:round;stroke-linejoin:round;stroke:rgb(80.392157%,38.039216%,8.627451%);stroke-opacity:1;stroke-miterlimit:4;" d="M 79.585533 151.20761 L 99.594423 142.113715 L 107.798761 159.506221 L 113.095232 130.599392 L 56.807247 128.109809 Z M 79.585533 151.20761 " transform="matrix(0.11284,0,0,0.112971,0,0)"/>
<path style="fill-rule:nonzero;fill:rgb(89.411765%,45.882353%,12.156863%);fill-opacity:1;stroke-width:1;stroke-linecap:round;stroke-linejoin:round;stroke:rgb(89.411765%,45.882353%,12.156863%);stroke-opacity:1;stroke-miterlimit:4;" d="M 56.807247 128.109809 L 80.416352 174.097946 L 79.585533 151.20761 Z M 56.807247 128.109809 " transform="matrix(0.11284,0,0,0.112971,0,0)"/>
<path style="fill-rule:nonzero;fill:rgb(89.411765%,45.882353%,12.156863%);fill-opacity:1;stroke-width:1;stroke-linecap:round;stroke-linejoin:round;stroke:rgb(89.411765%,45.882353%,12.156863%);stroke-opacity:1;stroke-miterlimit:4;" d="M 177.102909 151.20761 L 176.099003 174.097946 L 199.811961 128.109809 Z M 177.102909 151.20761 " transform="matrix(0.11284,0,0,0.112971,0,0)"/>
<path style="fill-rule:nonzero;fill:rgb(89.411765%,45.882353%,12.156863%);fill-opacity:1;stroke-width:1;stroke-linecap:round;stroke-linejoin:round;stroke:rgb(89.411765%,45.882353%,12.156863%);stroke-opacity:1;stroke-miterlimit:4;" d="M 113.095232 130.599392 L 107.798761 159.506221 L 114.410695 193.599682 L 115.899246 148.683449 Z M 113.095232 130.599392 " transform="matrix(0.11284,0,0,0.112971,0,0)"/>
<path style="fill-rule:nonzero;fill:rgb(89.411765%,45.882353%,12.156863%);fill-opacity:1;stroke-width:1;stroke-linecap:round;stroke-linejoin:round;stroke:rgb(89.411765%,45.882353%,12.156863%);stroke-opacity:1;stroke-miterlimit:4;" d="M 143.593211 130.599392 L 140.89305 148.614294 L 142.104661 193.599682 L 148.78583 159.506221 Z M 143.593211 130.599392 " transform="matrix(0.11284,0,0,0.112971,0,0)"/>
<path style="fill-rule:nonzero;fill:rgb(96.470588%,52.156863%,10.588235%);fill-opacity:1;stroke-width:1;stroke-linecap:round;stroke-linejoin:round;stroke:rgb(96.470588%,52.156863%,10.588235%);stroke-opacity:1;stroke-miterlimit:4;" d="M 148.78583 159.506221 L 142.104661 193.599682 L 146.916487 196.884549 L 176.099003 174.097946 L 177.102909 151.20761 Z M 148.78583 159.506221 " transform="matrix(0.11284,0,0,0.112971,0,0)"/>
<path style="fill-rule:nonzero;fill:rgb(96.470588%,52.156863%,10.588235%);fill-opacity:1;stroke-width:1;stroke-linecap:round;stroke-linejoin:round;stroke:rgb(96.470588%,52.156863%,10.588235%);stroke-opacity:1;stroke-miterlimit:4;" d="M 79.585533 151.20761 L 80.416352 174.097946 L 109.598869 196.884549 L 114.410695 193.599682 L 107.798761 159.506221 Z M 79.585533 151.20761 " transform="matrix(0.11284,0,0,0.112971,0,0)"/>
<path style="fill-rule:nonzero;fill:rgb(75.294118%,67.843137%,61.960784%);fill-opacity:1;stroke-width:1;stroke-linecap:round;stroke-linejoin:round;stroke:rgb(75.294118%,67.843137%,61.960784%);stroke-opacity:1;stroke-miterlimit:4;" d="M 149.305092 228.315538 L 149.616649 219.014178 L 147.089574 216.801215 L 109.391164 216.801215 L 107.106412 219.014178 L 107.314116 228.315538 L 75.812231 213.412616 L 86.785964 222.402778 L 109.114224 237.893519 L 147.401131 237.893519 L 169.798626 222.402778 L 180.806977 213.412616 Z M 149.305092 228.315538 " transform="matrix(0.11284,0,0,0.112971,0,0)"/>
<path style="fill-rule:nonzero;fill:rgb(8.627451%,8.627451%,8.627451%);fill-opacity:1;stroke-width:1;stroke-linecap:round;stroke-linejoin:round;stroke:rgb(8.627451%,8.627451%,8.627451%);stroke-opacity:1;stroke-miterlimit:4;" d="M 146.916487 196.884549 L 142.104661 193.599682 L 114.410695 193.599682 L 109.598869 196.884549 L 107.106412 219.014178 L 109.391164 216.801215 L 147.089574 216.801215 L 149.616649 219.014178 Z M 146.916487 196.884549 " transform="matrix(0.11284,0,0,0.112971,0,0)"/>
<path style="fill-rule:nonzero;fill:rgb(46.27451%,23.921569%,8.627451%);fill-opacity:1;stroke-width:1;stroke-linecap:round;stroke-linejoin:round;stroke:rgb(46.27451%,23.921569%,8.627451%);stroke-opacity:1;stroke-miterlimit:4;" d="M 247.307112 80.18533 L 255.788389 39.383825 L 243.083782 1.486834 L 146.916487 72.889468 L 183.887931 104.216725 L 236.194908 119.5 L 247.791756 106.014757 L 242.806843 102.384115 L 250.803475 95.088252 L 244.60695 90.316551 L 252.603583 84.196325 Z M 247.307112 80.18533 " transform="matrix(0.11284,0,0,0.112971,0,0)"/>
<path style="fill-rule:nonzero;fill:rgb(46.27451%,23.921569%,8.627451%);fill-opacity:1;stroke-width:1;stroke-linecap:round;stroke-linejoin:round;stroke:rgb(46.27451%,23.921569%,8.627451%);stroke-opacity:1;stroke-miterlimit:4;" d="M 0.796202 39.383825 L 9.312096 80.18533 L 3.911773 84.196325 L 11.908405 90.316551 L 5.815733 95.088252 L 13.812365 102.384115 L 8.792834 106.014757 L 20.28583 119.5 L 72.592807 104.216725 L 109.598869 72.889468 L 13.396956 1.486834 Z M 0.796202 39.383825 " transform="matrix(0.11284,0,0,0.112971,0,0)"/>
<path style="fill-rule:nonzero;fill:rgb(96.470588%,52.156863%,10.588235%);fill-opacity:1;stroke-width:1;stroke-linecap:round;stroke-linejoin:round;stroke:rgb(96.470588%,52.156863%,10.588235%);stroke-opacity:1;stroke-miterlimit:4;" d="M 236.194908 119.5 L 183.887931 104.216725 L 199.811961 128.109809 L 176.099003 174.097946 L 207.289332 173.683015 L 253.815194 173.683015 Z M 236.194908 119.5 " transform="matrix(0.11284,0,0,0.112971,0,0)"/>
<path style="fill-rule:nonzero;fill:rgb(96.470588%,52.156863%,10.588235%);fill-opacity:1;stroke-width:1;stroke-linecap:round;stroke-linejoin:round;stroke:rgb(96.470588%,52.156863%,10.588235%);stroke-opacity:1;stroke-miterlimit:4;" d="M 72.592807 104.216725 L 20.28583 119.5 L 2.907866 173.683015 L 49.295259 173.683015 L 80.416352 174.097946 L 56.807247 128.109809 Z M 72.592807 104.216725 " transform="matrix(0.11284,0,0,0.112971,0,0)"/>
<path style="fill-rule:nonzero;fill:rgb(96.470588%,52.156863%,10.588235%);fill-opacity:1;stroke-width:1;stroke-linecap:round;stroke-linejoin:round;stroke:rgb(96.470588%,52.156863%,10.588235%);stroke-opacity:1;stroke-miterlimit:4;" d="M 143.593211 130.599392 L 146.916487 72.889468 L 162.113551 31.811343 L 94.60951 31.811343 L 109.598869 72.889468 L 113.095232 130.599392 L 114.306843 148.787182 L 114.410695 193.599682 L 142.104661 193.599682 L 142.312365 148.787182 Z M 143.593211 130.599392 " transform="matrix(0.11284,0,0,0.112971,0,0)"/>
</g>
</svg>
