<svg width="14" height="21" viewBox="0 0 14 21" fill="none" xmlns="http://www.w3.org/2000/svg">
<path d="M7 0.1875C4.1642 0.1875 1.86667 2.58911 1.86667 5.55335V8.48018H1.4C0.632471 8.48018 0 9.1413 0 9.9436V18.7241C0 19.5264 0.632471 20.1875 1.4 20.1875H12.6C13.3675 20.1875 14 19.5264 14 18.7241V9.9436C14 9.1413 13.3675 8.48018 12.6 8.48018H12.1333V5.55335C12.1333 2.58911 9.8358 0.1875 7 0.1875ZM7 1.16311C9.33487 1.16311 11.2 3.11272 11.2 5.55335V8.48018H2.8V5.55335C2.8 3.11272 4.66513 1.16311 7 1.16311ZM1.4 9.45579H12.6C12.8666 9.45579 13.0667 9.66492 13.0667 9.9436V18.7241C13.0667 19.0028 12.8666 19.2119 12.6 19.2119H1.4C1.13339 19.2119 0.933333 19.0028 0.933333 18.7241V9.9436C0.933333 9.66492 1.13339 9.45579 1.4 9.45579Z" fill="#9C55F6"/>
</svg>
