<svg xmlns="http://www.w3.org/2000/svg" xmlns:xlink="http://www.w3.org/1999/xlink" width="100" height="100" viewBox="0 0 100 100"><g><g transform="translate(50 50) scale(0.69 0.69) rotate(0) translate(-50 -50)" style="fill:#050505"><svg fill="#050505" xmlns="http://www.w3.org/2000/svg" xmlns:xlink="http://www.w3.org/1999/xlink" version="1.1" x="0px" y="0px" viewBox="0 0 100 100" enable-background="new 0 0 100 100" xml:space="preserve"><g><g><path d="M85.351,13.957c-3.575-3.575-9.371-3.575-12.946,0c-3.204,3.204-3.534,8.19-0.996,11.764L60.537,36.592    c-1.924-1.338-4.259-2.123-6.775-2.123c-2.725,0-5.239,0.922-7.247,2.469l-7.636-7.636c1.604-2.71,1.242-6.261-1.087-8.59    c-2.759-2.759-7.231-2.758-9.989,0c-2.759,2.758-2.759,7.231,0,9.989c2.336,2.336,5.901,2.693,8.614,1.072l7.673,7.673    c-1.139,1.587-1.896,3.465-2.139,5.499H30.122c-0.785-4.259-4.515-7.486-9-7.485c-5.056,0-9.155,4.099-9.155,9.155    c0,5.056,4.098,9.155,9.155,9.155c4.433,0,8.129-3.151,8.973-7.334h11.951c0.886,5.031,4.944,8.981,10.027,9.707v12.42    c-4.28,0.768-7.528,4.507-7.528,9.008c0,5.056,4.099,9.155,9.155,9.155c5.056,0,9.155-4.099,9.155-9.155    c0-4.418-3.129-8.104-7.292-8.964V58.126c5.709-0.87,10.097-5.813,10.097-11.761c0-2.788-0.964-5.354-2.576-7.384l10.848-10.848    c3.545,2.281,8.318,1.873,11.42-1.229C88.926,23.329,88.926,17.532,85.351,13.957z M53.762,54.661    c-4.574,0-8.295-3.721-8.295-8.295c0-4.574,3.721-8.295,8.295-8.295s8.295,3.721,8.295,8.295    C62.057,50.94,58.336,54.661,53.762,54.661z"></path></g></g></svg></g></g></svg>