<svg fill="none" height="19" viewBox="0 0 35 19" width="35" xmlns="http://www.w3.org/2000/svg"><path d="m.019516 12.7901c.007637.0363.021637.0701.0330906.1048.007637.0227.0123043.0466.0216369.0689.0156975.0367.0373325.0701.0572725.1043.010606.0182.019092.0376.031394.0553.028849.0429.063635.0817.100121.1192.005939.0066.010605.0145.017393.0207l2.754186 2.678c.37291.3626.97704.3626 1.34995 0 .37291-.3622.37291-.95 0-1.3126l-1.1251-1.094h5.6085c1.40464 3.2955 4.70574 5.4653 8.42034 5.4653 3.951 0 7.4319-2.4532 8.664-6.1047.1641-.4872-.1087-1.0115-.6101-1.1711-.0984-.0314-.199-.0462-.2974-.0462-.4009 0-.7747.2483-.9066.639-.9745 2.8871-3.727 4.8267-6.8499 4.8267-3.1228 0-5.8757-1.9396-6.8494-4.8267-.1285-.3812-.49463-.639-.90742-.639h-6.27159l1.12509-1.0936c.37291-.3626.37291-.94996 0-1.31256-.18624-.18109-.43103-.27184-.67539-.27184-.24437 0-.48789.09075-.67455.27184l-2.755039 2.67796c-.044121.0429-.083577.09-.118365.1407-.007637.0111-.012302.0239-.019939.0351-.02503.04-.0496369.0804-.0678788.1241-.0067882.0161-.009758.033-.0156975.0495-.0148487.0405-.0296974.0809-.03903.1238-.01145368.0565-.01739316.1142-.01739316.1724-.00084877.0037-.00169754.0074-.00169754.0107.00042343.0623.00678825.1238.019516.184z" fill="#31e4c3"/><path d="m9.65765 7.27543c.50065.16004 1.03985-.1056 1.20405-.59275.9745-2.88698 3.727-4.82649 6.8498-4.82649 3.1229 0 5.8759 1.93951 6.8495 4.82649.1285.38114.4947.63895.9075.63895h6.2716l-1.1251 1.09391c-.3729.36216-.3729.94995 0 1.31253.3729.36253.977.36253 1.3499 0l2.7534-2.67704c.0454-.04372.0853-.09198.1209-.14354.014-.02062.0242-.0429.0365-.06476.0174-.03135.0373-.06146.0513-.09487.0123-.02888.0191-.0594.028-.08951.0089-.02764.02-.05486.0259-.08374.0115-.05857.0183-.11797.0183-.17778 0-.00124.0008-.00247.0008-.00371 0-.06105-.0068-.1221-.0191-.18191-.0051-.02598-.0157-.04949-.0233-.07466-.0089-.03341-.0174-.06682-.0314-.09899-.0115-.02846-.0289-.05404-.0441-.08126-.014-.02599-.0268-.05363-.0442-.07838-.0314-.04619-.0678-.08827-.1077-.12828-.0034-.00412-.0068-.00907-.0106-.0132l-2.7542-2.67827c-.1863-.18108-.4302-.27183-.6746-.27183s-.4887.09075-.6754.27183c-.3729.36216-.3729.94996 0 1.31253l1.1251 1.09391h-5.6089c-1.4043-3.29493-4.7054-5.46461-8.4201-5.46461-3.951 0-7.4319 2.45305-8.66391 6.10438-.16376.48673.1086 1.011.61006 1.17105z" fill="#9c55f6"/></svg>