<svg width="27" height="27" viewBox="0 0 27 27" fill="none" xmlns="http://www.w3.org/2000/svg">
<circle cx="13.5" cy="13.5" r="13.5" fill="#F1F4F7"/>
<path d="M19.7113 8.83736L17.4133 19.8655C17.3073 20.3841 16.7018 20.6146 16.2776 20.3044L12.8041 17.7468L11.0365 19.5597C10.7271 19.8788 10.188 19.7503 10.0554 19.3248L8.77829 15.2601L5.35344 14.2451C4.90269 14.1121 4.87617 13.4827 5.31367 13.3142L18.7789 8.04837C19.2915 7.8489 19.8218 8.29659 19.7113 8.83736ZM16.8963 10.2336L9.51187 14.8302C9.38372 14.9099 9.32185 15.0695 9.36604 15.2158L10.3559 18.4205C10.378 18.487 10.4753 18.4781 10.4841 18.4072L10.7227 16.2619C10.7316 16.1777 10.7713 16.1023 10.8332 16.0491L17.0907 10.4951C17.241 10.3622 17.0686 10.1272 16.8963 10.2336Z" fill="#A8AEB7"/>
</svg>
