<svg fill="none" height="32" width="32" xmlns="http://www.w3.org/2000/svg" xmlns:xlink="http://www.w3.org/1999/xlink"><linearGradient id="a" x2="1"><stop offset="0" stop-color="#9c55f6"/><stop offset="1" stop-color="#31e4c3"/></linearGradient><path d="m16 31c8.284 0 15-6.716 15-15s-6.716-15-15-15-15 6.716-15 15 6.716 15 15 15z" fill="#fafcfe" stroke="url(#a)"/><path d="m13.25 20.46 10.366-10.317a.497.497 0 0 1 .689-.008.466.466 0 0 1 .008.671l-10.715 10.664a.497.497 0 0 1 -.697 0l-4.761-4.74a.466.466 0 0 1 .008-.67.497.497 0 0 1 .689.007z" stroke="#31e4c3"/></svg>