<svg width="27" height="27" viewBox="0 0 27 27" fill="none" xmlns="http://www.w3.org/2000/svg">
<circle cx="13.5" cy="13.5" r="13.5" fill="#F1F4F7"/>
<path d="M21.2306 9.46241C20.6702 9.71045 20.068 9.8781 19.4359 9.9535C20.0811 9.5675 20.5765 8.95631 20.8098 8.22808C20.2061 8.58544 19.5374 8.845 18.8256 8.98489C18.2556 8.37877 17.4435 8 16.5448 8C14.819 8 13.4199 9.39635 13.4199 11.1187C13.4199 11.3631 13.4476 11.6011 13.5009 11.8294C10.9039 11.6993 8.60145 10.4577 7.06028 8.57087C6.79131 9.03149 6.63721 9.56722 6.63721 10.1388C6.63721 11.2207 7.18891 12.1753 8.02735 12.7346C7.5151 12.7184 7.03331 12.5781 6.61198 12.3445C6.61175 12.3575 6.61175 12.3706 6.61175 12.3837C6.61175 13.8948 7.68886 15.1553 9.11833 15.4418C8.8561 15.5131 8.58005 15.5511 8.29504 15.5511C8.0937 15.5511 7.89794 15.5316 7.70719 15.4952C8.10479 16.7343 9.25877 17.6359 10.6261 17.6611C9.55671 18.4975 8.20936 18.9961 6.7454 18.9961C6.4932 18.9961 6.24446 18.9814 6 18.9526C7.38284 19.8375 9.02535 20.3537 10.79 20.3537C16.5375 20.3537 19.6804 15.6015 19.6804 11.4803C19.6804 11.3451 19.6774 11.2106 19.6714 11.0768C20.2819 10.6371 20.8117 10.0878 21.2306 9.46241Z" fill="#A8AEB7"/>
</svg>
