<svg width="24" height="24" viewBox="0 0 24 24" fill="none" xmlns="http://www.w3.org/2000/svg">
<path d="M11.567 1.75C11.7594 1.41667 12.2406 1.41667 12.433 1.75L21.0933 16.75C21.2857 17.0833 21.0452 17.5 20.6603 17.5H3.33975C2.95485 17.5 2.71428 17.0833 2.90673 16.75L11.567 1.75Z" stroke="#F12274"/>
<path d="M11.1672 6.81816H12.8472V8.36616L12.4872 12.6982H11.5272L11.1672 8.36616V6.81816ZM12.0072 15.5062C11.7672 15.5062 11.5592 15.4182 11.3832 15.2422C11.2072 15.0662 11.1192 14.8582 11.1192 14.6182C11.1192 14.3702 11.2072 14.1582 11.3832 13.9822C11.5592 13.8062 11.7672 13.7182 12.0072 13.7182C12.2552 13.7182 12.4672 13.8062 12.6432 13.9822C12.8192 14.1582 12.9072 14.3702 12.9072 14.6182C12.9072 14.8582 12.8192 15.0662 12.6432 15.2422C12.4672 15.4182 12.2552 15.5062 12.0072 15.5062Z" fill="#F12274"/>
</svg>
