<svg width="17" height="12" viewBox="0 0 17 12" fill="none" xmlns="http://www.w3.org/2000/svg">
<path d="M2.07778 0C1.55456 0 1.13333 0.421222 1.13333 0.944444V9.44444H15.8667V0.944444C15.8667 0.421222 15.4455 0 14.9222 0H2.07778ZM0 9.82222V10.5778C0 11.2056 0.505467 11.7111 1.13333 11.7111H15.8667C16.4945 11.7111 17 11.2056 17 10.5778V9.82222H0Z" fill="#A8AEB7"/>
<path d="M3.60385 3.58888C3.60093 3.59186 3.598 3.59483 3.59508 3.59781C3.2987 3.90315 3.11999 4.28235 3.05896 4.67671C3.0434 4.77696 3.03542 4.87815 3.03516 4.97935V4.99098C3.03542 5.08825 3.04274 5.18552 3.05696 5.28185C3.10151 5.58204 3.21413 5.87386 3.3947 6.1313C3.4544 6.2164 3.52155 6.29784 3.59588 6.37455C3.59854 6.37725 3.6012 6.37982 3.60385 6.38253C3.76541 6.54704 3.94584 6.67353 4.13745 6.76431C4.8431 7.09792 5.70207 6.94315 6.34456 6.38699C6.34616 6.38551 6.34789 6.38402 6.34961 6.38253C7.07495 5.75102 7.74058 5.17903 8.457 5.17903C9.17329 5.17903 9.83892 5.75102 10.5643 6.38253C10.7613 6.55394 10.9787 6.6876 11.206 6.78081C11.5034 6.90297 11.8176 6.95587 12.1246 6.93395C12.5564 6.90324 12.9737 6.72467 13.3102 6.38253C13.3128 6.37982 13.3153 6.37725 13.3179 6.37455C13.3925 6.29784 13.4596 6.2164 13.5193 6.1313C13.6999 5.87386 13.8125 5.58204 13.8569 5.28185C13.8867 5.08149 13.886 4.87707 13.855 4.67671C13.794 4.28235 13.6152 3.90315 13.3189 3.59781C13.3159 3.59483 13.3131 3.59172 13.31 3.58888C12.9737 3.24674 12.5564 3.06952 12.1246 3.03976C11.8172 3.01852 11.5026 3.07209 11.205 3.19385C10.9782 3.28692 10.7609 3.41937 10.5643 3.58888C9.83613 4.21647 9.17688 4.79252 8.457 4.79252C7.73712 4.79252 7.07787 4.21647 6.34961 3.58888C6.34828 3.58766 6.34709 3.58658 6.34576 3.5855C5.92864 3.22753 5.41991 3.03516 4.92129 3.03516C4.6515 3.03516 4.38477 3.09144 4.13692 3.20805C3.94545 3.29829 3.76528 3.42451 3.60385 3.58888Z" fill="#F1F4F7"/>
</svg>
