<svg width="20" height="19" viewBox="0 0 20 19" fill="none" xmlns="http://www.w3.org/2000/svg">
<path fill-rule="evenodd" clip-rule="evenodd" d="M0.349121 2.79826C0.349121 1.8098 1.16399 1 2.15865 1H16.1825C16.4193 1.00002 16.6348 1.21417 16.6348 1.44956V3.69738H17.7658C18.6351 3.69738 19.3491 4.40693 19.3491 5.27086V15.6108C19.3491 16.4748 18.6351 17.1843 17.7658 17.1843H1.93245C1.06311 17.1843 0.349121 16.4748 0.349121 15.6108V2.79826ZM15.7301 1.89906H2.15863C1.64957 1.89906 1.25387 2.29229 1.25387 2.79819C1.25387 3.30408 1.64957 3.69732 2.15863 3.69732H15.7301V1.89906ZM1.25387 4.3506C1.52053 4.50493 1.82966 4.59646 2.15863 4.59646C5.64988 4.59338 9.62892 4.59452 13.1969 4.59555H13.197H13.1972H13.1973C14.8358 4.59602 16.3877 4.59646 17.7658 4.59646C18.1495 4.59646 18.4444 4.88944 18.4444 5.27081V7.51863H11.8848C11.2661 7.51863 10.7539 8.02767 10.7539 8.64255V12.2391C10.7539 12.8539 11.2661 13.363 11.8848 13.363H18.4444V15.6108C18.4444 15.9922 18.1495 16.2851 17.7658 16.2851H1.93244C1.54869 16.2851 1.25387 15.9922 1.25387 15.6108V4.3506ZM18.4443 8.41787H11.8848C11.7517 8.41787 11.6586 8.51034 11.6586 8.64266V12.2392C11.6586 12.3715 11.7517 12.464 11.8848 12.464H18.4443V8.41787ZM14.1468 9.30997C13.5275 9.30997 13.0158 9.81847 13.0158 10.4339C13.0158 11.0493 13.5275 11.5578 14.1468 11.5578C14.766 11.5578 15.2777 11.0493 15.2777 10.4339C15.2777 9.81847 14.766 9.30997 14.1468 9.30997ZM14.3729 10.4338C14.3729 10.3043 14.277 10.209 14.1467 10.209C14.0165 10.209 13.9206 10.3043 13.9206 10.4338C13.9206 10.5633 14.0165 10.6586 14.1467 10.6586C14.277 10.6586 14.3729 10.5633 14.3729 10.4338Z" fill="#D8D8D8"/>
</svg>
