<svg width="20" height="17" viewBox="0 0 20 17" fill="none" xmlns="http://www.w3.org/2000/svg">
<path fill-rule="evenodd" clip-rule="evenodd" d="M0.349121 1.79826C0.349121 0.8098 1.16399 0 2.15865 0H16.1825C16.4193 2.24782e-05 16.6348 0.214172 16.6348 0.449564V2.69738H17.7658C18.6351 2.69738 19.3491 3.40693 19.3491 4.27086V14.6108C19.3491 15.4748 18.6351 16.1843 17.7658 16.1843H1.93245C1.06311 16.1843 0.349121 15.4748 0.349121 14.6108V1.79826ZM15.7301 0.899059H2.15863C1.64957 0.899059 1.25387 1.29229 1.25387 1.79819C1.25387 2.30408 1.64957 2.69732 2.15863 2.69732H15.7301V0.899059ZM1.25387 3.3506C1.52053 3.50493 1.82966 3.59646 2.15863 3.59646C5.64988 3.59338 9.62892 3.59452 13.1969 3.59555H13.197H13.1972H13.1973C14.8358 3.59602 16.3877 3.59646 17.7658 3.59646C18.1495 3.59646 18.4444 3.88944 18.4444 4.27081V6.51863H11.8848C11.2661 6.51863 10.7539 7.02767 10.7539 7.64255V11.2391C10.7539 11.8539 11.2661 12.363 11.8848 12.363H18.4444V14.6108C18.4444 14.9922 18.1495 15.2851 17.7658 15.2851H1.93244C1.54869 15.2851 1.25387 14.9922 1.25387 14.6108V3.3506ZM18.4443 7.41787H11.8848C11.7517 7.41787 11.6586 7.51034 11.6586 7.64266V11.2392C11.6586 11.3715 11.7517 11.464 11.8848 11.464H18.4443V7.41787ZM14.1468 8.30997C13.5275 8.30997 13.0158 8.81847 13.0158 9.43388C13.0158 10.0493 13.5275 10.5578 14.1468 10.5578C14.766 10.5578 15.2777 10.0493 15.2777 9.43388C15.2777 8.81847 14.766 8.30997 14.1468 8.30997ZM14.3729 9.43381C14.3729 9.30434 14.277 9.20903 14.1467 9.20903C14.0165 9.20903 13.9206 9.30434 13.9206 9.43381C13.9206 9.56326 14.0165 9.65859 14.1467 9.65859C14.277 9.65859 14.3729 9.56326 14.3729 9.43381Z" fill="#A8AEB7"/>
</svg>
