<svg fill="none" height="18" viewBox="0 0 18 18" width="18" xmlns="http://www.w3.org/2000/svg"><g fill="#9d4dfa"><path clip-rule="evenodd" d="m14.8708 1h-6.70895c-1.1744 0-2.12991.95552-2.12991 2.12991v2.90203h-2.90203c-1.17439 0-2.12991.95551-2.12991 2.12915v6.70901c0 1.1751.95552 2.1299 2.12991 2.1299h6.709c1.17439 0 2.12989-.9555 2.12989-2.1299v-2.902h2.9013c1.1744 0 2.1299-.9556 2.1299-2.12919v-6.70824c.0008-1.17515-.9548-2.13067-2.1292-2.13067zm-3.8077 13.8701c0 .6755-.5494 1.225-1.22419 1.225h-6.709c-.6755 0-1.22421-.5503-1.22421-1.225v-6.70901c0-.6755.54946-1.22421 1.22421-1.22421h2.90127v2.90203c0 1.17439.95552 2.12919 2.12991 2.12919h2.90201zm3.8077-3.807c.6748 0 1.2243-.5487 1.2243-1.22419v-6.70824c0-.67475-.5488-1.22497-1.2243-1.22497h-6.70895c-.67475 0-1.22421.54946-1.22421 1.22497v6.70824c0 .67479.5487 1.22419 1.22421 1.22419z" fill-rule="evenodd"/><path d="m6.03194 6.03194v.5h.5v-.5zm5.93686 5.93616v-.5h-.5v.5zm5.0312-8.83743-.5-.00032v.00032zm-10.96882 3.80621h.5v-.5h-.5zm5.03192 5.03122h.5v-.5h-.5zm-2.90125-10.4681h6.70895v-1h-6.70895zm-1.62991 1.62991c0-.89825.73165-1.62991 1.62991-1.62991v-1c-1.45054 0-2.62991 1.17937-2.62991 2.62991zm0 2.90203v-2.90203h-1v2.90203zm-3.40203.5h2.90203v-1h-2.90203zm-1.62991 1.62915c0-.89738.73154-1.62915 1.62991-1.62915v-1c-1.45042 0-2.62991 1.17925-2.62991 2.62915zm0 6.70901v-6.70901h-1v6.70901zm1.62991 1.6299c-.89837 0-1.62991-.731-1.62991-1.6299h-1c0 1.4514 1.17949 2.6299 2.62991 2.6299zm6.709 0h-6.709v1h6.709zm1.62989-1.6299c0 .8982-.7316 1.6299-1.62989 1.6299v1c1.45049 0 2.62989-1.1794 2.62989-2.6299zm0-2.902v2.902h1v-2.902zm3.4013-.5h-2.9013v1h2.9013zm1.6299-1.62919c0 .89739-.7315 1.62919-1.6299 1.62919v1c1.4504 0 2.6299-1.1793 2.6299-2.62919zm0-6.70824v6.70824h1v-6.70824zm-1.6292-1.63067c.8982 0 1.6298.73154 1.6292 1.63035l1 .00064c.0009-1.45149-1.1786-2.63099-2.6292-2.63099zm-5.03189 15.0951c.95109 0 1.72419-.7736 1.72419-1.725h-1c0 .3995-.3258.725-.72419.725zm-6.709 0h6.709v-1h-6.709zm-1.72421-1.725c0 .9503.77196 1.725 1.72421 1.725v-1c-.39876 0-.72421-.3258-.72421-.725zm0-6.70901v6.70901h1v-6.70901zm1.72421-1.72421c-.95069 0-1.72421.77237-1.72421 1.72421h1c0-.39916.3254-.72421.72421-.72421zm2.90127 0h-2.90127v1h2.90127zm.5 3.40203v-2.90203h-1v2.90203zm1.62991 1.62919c-.89848 0-1.62991-.7312-1.62991-1.62919h-1c0 1.45079 1.17961 2.62919 2.62991 2.62919zm2.90201 0h-2.90201v1h2.90201zm.5 3.402v-2.902h-1v2.902zm4.032-5.03119c0 .39919-.3255.72419-.7243.72419v1c.9507 0 1.7243-.7723 1.7243-1.72419zm0-6.70824v6.70824h1v-6.70824zm-.7243-.72497c.3988 0 .7243.32576.7243.72497h1c0-.95029-.772-1.72497-1.7243-1.72497zm-6.70895 0h6.70895v-1h-6.70895zm-.72421.72497c0-.39957.3258-.72497.72421-.72497v-1c-.95109 0-1.72421.77352-1.72421 1.72497zm0 6.70824v-6.70824h-1v6.70824zm.72421.72419c-.39916 0-.72421-.3254-.72421-.72419h-1c0 .95069.77236 1.72419 1.72421 1.72419zm6.70895 0h-6.70895v1h6.70895z"/></g></svg>