<svg height="100" viewBox="0 0 100 100" width="100" xmlns="http://www.w3.org/2000/svg"><svg enable-background="new 0 0 100 100" fill="#050505" transform="matrix(.69 0 0 .69 15.5 15.5)" version="1.1" viewBox="0 0 100 100" xmlns="http://www.w3.org/2000/svg" xmlns:xlink="http://www.w3.org/1999/xlink"><path d="m85.351 13.957c-3.575-3.575-9.371-3.575-12.946 0-3.204 3.204-3.534 8.19-.996 11.764l-10.872 10.871c-1.924-1.338-4.259-2.123-6.775-2.123-2.725 0-5.239.922-7.247 2.469l-7.636-7.636c1.604-2.71 1.242-6.261-1.087-8.59-2.759-2.759-7.231-2.758-9.989 0-2.759 2.758-2.759 7.231 0 9.989 2.336 2.336 5.901 2.693 8.614 1.072l7.673 7.673c-1.139 1.587-1.896 3.465-2.139 5.499h-11.829c-.785-4.259-4.515-7.486-9-7.485-5.056 0-9.155 4.099-9.155 9.155s4.098 9.155 9.155 9.155c4.433 0 8.129-3.151 8.973-7.334h11.951c.886 5.031 4.944 8.981 10.027 9.707v12.42c-4.28.768-7.528 4.507-7.528 9.008 0 5.056 4.099 9.155 9.155 9.155s9.155-4.099 9.155-9.155c0-4.418-3.129-8.104-7.292-8.964v-12.481c5.709-.87 10.097-5.813 10.097-11.761 0-2.788-.964-5.354-2.576-7.384l10.848-10.848c3.545 2.281 8.318 1.873 11.42-1.229 3.574-3.575 3.574-9.372-.001-12.947zm-31.589 40.704c-4.574 0-8.295-3.721-8.295-8.295s3.721-8.295 8.295-8.295 8.295 3.721 8.295 8.295-3.721 8.295-8.295 8.295z"/></svg></svg>