<svg height="17" viewBox="0 0 17 17" width="17" xmlns="http://www.w3.org/2000/svg" xmlns:xlink="http://www.w3.org/1999/xlink"><mask id="a" fill="#fff"><path d="m0 .181h3.96v3.819h-3.96z" fill="#fff" fill-rule="evenodd"/></mask><mask id="b" fill="#fff"><path d="m0 .178h3.96v3.68h-3.96z" fill="#fff" fill-rule="evenodd"/></mask><mask id="c" fill="#fff"><path d="m0 16h16v-16h-16z" fill="#fff" fill-rule="evenodd"/></mask><g fill="#000" fill-rule="evenodd"><path d="m0 1.27a2.73 2.73 0 0 0 2.73 2.73h1.23v-3.819h-3.96z" mask="url(#a)" transform="translate(0 12)"/><path d="m3.96 3.858v-3.68h-1.23c-1.506 0-2.73 1.14-2.73 2.548v1.132z" mask="url(#b)"/><path d="m0 10h4v-4h-4zm13.281-10h-7.281v10h10v-7.319c0-1.48-1.217-2.681-2.719-2.681m-1.281 16h1.196c1.548 0 2.804-1.28 2.804-2.86v-1.14h-4zm-6 0h4v-4h-4z" mask="url(#c)"/></g></svg>