<svg enable-background="new 0 0 48 48" height="48" viewBox="0 0 48 48" width="48" xmlns="http://www.w3.org/2000/svg"><path d="m23.945 15.774c1.26 0 2.053-.864 2.016-1.944 0-1.115-.756-1.979-1.943-1.979-1.151 0-1.979.863-1.979 1.979 0 1.08.791 1.944 1.906 1.944z"/><path d="m25.602 34.941v-14.796c0-1.303-1.053-1.413-1.351-1.418h-.566s-1.251.012-1.251 1.152v15.303c.023.346.175.967 1.001.967h1.181c.351-.028.986-.211.986-1.208z"/><path d="m24 0c-13.254 0-24 10.744-24 24 0 13.254 10.745 24 24 24 13.256 0 24-10.746 24-24 0-13.256-10.744-24-24-24zm0 44c-11.045 0-20-8.955-20-20 0-11.047 8.955-20 20-20 11.047 0 20 8.954 20 20 0 11.045-8.953 20-20 20z"/></svg>