<svg fill="none" height="25" viewBox="0 0 18 25" width="18" xmlns="http://www.w3.org/2000/svg"><path d="m8.86481 0c-3.42826 0-6.20581 2.93844-6.20581 6.56528v3.58102h-.56416c-.92789 0-1.692496.8089-1.692496 1.7906v10.7432c0 .9816.764606 1.7905 1.692496 1.7905h13.53996c.9279 0 1.6925-.8089 1.6925-1.7905v-10.7432c0-.9817-.7646-1.7906-1.6925-1.7906h-.5642v-3.58102c0-3.62684-2.7775-6.56528-6.20579-6.56528zm0 1.19369c2.82269 0 5.07749 2.3854 5.07749 5.37159v3.58102h-10.15497v-3.58102c0-2.98619 2.25479-5.37159 5.07748-5.37159zm-6.76997 10.14631h13.53996c.3223 0 .5641.2559.5641.5969v10.7432c0 .3409-.2418.5968-.5641.5968h-13.53996c-.32231 0-.56417-.2559-.56417-.5968v-10.7432c0-.341.24186-.5969.56417-.5969z" fill="#9c55f6"/></svg>